<svg width="124" height="34" viewBox="0 0 124 34" fill="none" xmlns="http://www.w3.org/2000/svg">
<path d="M14.2485 22.6227L17.2481 30.8686L9.00586 33.8682L14.2485 22.6227Z" fill="#F4711E"/>
<path d="M9.00616 33.8681L6.00293 25.6222L14.2488 22.6227L9.00616 33.8681Z" fill="#F9A72B"/>
<path d="M25.4944 27.8654L17.2485 30.8686L14.249 22.6227L25.4944 27.8654Z" fill="#F14624"/>
<path d="M14.249 22.6227L22.4949 19.6195L25.4944 27.8654L14.249 22.6227Z" fill="#ED1C24"/>
<path d="M30.7405 16.6199L33.74 24.8658L25.4941 27.8654L30.7405 16.6199Z" fill="#BF1B2C"/>
<path d="M25.4937 27.8654L22.4941 19.6232L30.74 16.6199L25.4937 27.8654Z" fill="#D91920"/>
<path d="M14.2484 22.6227L6.00245 25.6223L3.00293 17.3801L14.2484 22.6227Z" fill="#F2EF1D"/>
<path d="M3.00293 17.38L11.2488 14.3768L14.2484 22.6227L3.00293 17.38Z" fill="#CCE310"/>
<path d="M30.7405 16.62L22.4946 19.6232L19.4951 11.3773L30.7405 16.62Z" fill="#EC008C"/>
<path d="M19.4951 11.3773L27.7373 8.37405L30.7405 16.62L19.4951 11.3773Z" fill="#DA1259"/>
<path d="M8.2456 6.13089L11.2488 14.3768L3.00293 17.38L8.2456 6.13089Z" fill="#80CC28"/>
<path d="M3.00323 17.38L0 9.13412L8.24591 6.13089L3.00323 17.38Z" fill="#40B93C"/>
<path d="M19.4952 11.3773L11.2493 14.3768L8.24609 6.13089L19.4952 11.3773Z" fill="#37AB9C"/>
<path d="M8.24609 6.1309L16.492 3.13138L19.4952 11.3773L8.24609 6.1309Z" fill="#50ADE5"/>
<path d="M24.7376 0.131866L27.7371 8.37407L19.4912 11.3773L24.7376 0.131866Z" fill="#2F6ABC"/>
<path d="M19.4917 11.3773L16.4922 3.13139L24.7381 0.131866L19.4917 11.3773Z" fill="#3871C1"/>
<path d="M56.0644 18.5368L56.0904 18.1252C56.1089 17.8731 56.1164 17.5172 56.1164 17.0648C56.1164 14.6215 55.5713 12.8789 54.4961 11.8852C53.432 10.9027 51.5893 10.4058 49.0198 10.4058H45.7348C43.2396 10.4058 41.4191 10.8915 40.3327 11.8518C39.2278 12.8269 38.668 14.425 38.668 16.6014V18.7073C38.668 20.8689 39.2315 22.4558 40.3476 23.4198C41.445 24.369 43.2544 24.851 45.7348 24.851H49.6872C53.9511 24.851 56.1126 23.3976 56.1126 20.5315V19.7529H53.039V20.3276C53.039 21.5141 51.745 22.1147 49.1978 22.1147H45.7571C44.1776 22.1147 43.0838 21.8663 42.5017 21.3732C41.9419 20.8986 41.6564 20.0347 41.6564 18.8112V18.5368H56.0644ZM42.5573 13.854C43.1469 13.435 44.2073 13.2237 45.7126 13.2237H48.9716C50.9664 13.2237 51.8154 13.4906 52.1751 13.7168C52.709 14.0542 52.9945 14.729 53.0167 15.7226H41.6823C41.7565 14.8439 42.0494 14.2136 42.5573 13.854Z" fill="#231F20"/>
<path d="M60.821 5.12241H57.8252V24.6731H60.821V5.12241Z" fill="#231F20"/>
<path d="M74.0655 19.8901C74.0655 20.7948 73.8987 21.414 73.5835 21.6809C73.3907 21.8441 72.8086 22.1147 71.0994 22.1147C69.3345 22.1147 68.6301 21.9145 68.352 21.744C67.8811 21.4548 67.6401 20.78 67.6401 19.7381V13.2496H76.3421V10.5912H67.6661V7.56204H64.7481V10.5912H61.9229V13.2496H64.7481V19.6083C64.7481 20.5575 64.7926 21.2323 64.8853 21.6846C65.041 22.3631 65.3562 22.9452 65.8307 23.4161C66.8022 24.369 68.4113 24.851 70.61 24.851C72.8235 24.851 74.4141 24.4802 75.341 23.7535C76.2976 23.0009 76.7796 21.6995 76.7796 19.8864V17.7471H74.0655V19.8901Z" fill="#231F20"/>
<path d="M94.0643 11.6776C93.0373 10.8359 91.4355 10.4058 89.3036 10.4058H85.5032C83.4381 10.4058 81.9031 10.7284 80.9428 11.3661C79.9232 12.0409 79.4078 13.1458 79.4078 14.6511V15.452H82.5074V14.6215C82.5074 13.8466 82.8226 13.6167 83.0524 13.5166C83.3342 13.4016 84.0424 13.2682 85.8369 13.2682H88.9699C90.8312 13.2682 91.6728 13.5648 92.051 13.8132C92.5404 14.1321 92.7888 14.8031 92.7888 15.8042V16.6051C91.8137 15.9303 90.4456 15.5929 88.7067 15.5929H85.0027C82.6965 15.5929 81.028 15.9266 80.0492 16.5791C79.0148 17.2725 78.4883 18.4626 78.4883 20.12C78.4883 21.8403 79.0111 23.0824 80.0381 23.8091C81.0206 24.5025 82.7076 24.851 85.0509 24.851H88.5769C89.908 24.851 90.9535 24.7138 91.6802 24.4468C92.0992 24.2985 92.47 24.0872 92.7851 23.8165V24.673H95.6512V15.7078C95.6512 13.8985 95.1173 12.5414 94.0643 11.6776ZM88.766 22.0368H85.6071C83.5938 22.0368 82.9783 21.9367 82.7892 21.8774C82.0403 21.6438 81.688 21.058 81.688 20.031C81.688 19.1597 82.0477 18.6703 82.8522 18.4478C83.1155 18.3736 83.8088 18.2847 85.6071 18.2847H88.766C90.6495 18.2847 91.5134 18.4515 91.9064 18.5961C92.4255 18.7741 92.6591 19.0818 92.6591 19.5935V20.754C92.6591 21.1618 92.5108 21.6587 91.3391 21.896C91.0425 21.959 90.3566 22.0368 88.766 22.0368Z" fill="#231F20"/>
<path d="M113.2 11.9C112.162 10.9249 110.419 10.4318 108.021 10.4318H104.476C103.049 10.4318 101.951 10.5986 101.221 10.9286C100.772 11.1177 100.379 11.3884 100.042 11.7332V10.6098H97.3535V29.1334H100.271V23.7127C101.198 24.4839 102.437 24.8733 103.961 24.8733H108.017C110.379 24.8733 112.11 24.3912 113.167 23.4384C114.235 22.4744 114.776 20.9097 114.776 18.7815V16.7015C114.78 14.4991 114.249 12.8826 113.2 11.9ZM111.788 18.4923C111.788 19.9383 111.506 20.932 110.976 21.3658C110.586 21.6846 109.663 22.0628 107.483 22.0628H104.554C102.374 22.0628 101.451 21.6846 101.065 21.3658C100.531 20.932 100.253 19.9383 100.253 18.4923V16.9203C100.253 15.4223 100.546 14.3953 101.098 13.9356C101.465 13.6204 102.359 13.2459 104.554 13.2459H107.483C109.682 13.2459 110.601 13.6315 110.983 13.9541C111.509 14.3953 111.788 15.4223 111.788 16.9203V18.4923Z" fill="#231F20"/>
<path d="M119.774 9.11185H120.378L121.22 10.8545H122.31L121.387 8.97096C121.624 8.90422 121.82 8.78186 121.972 8.6076C122.162 8.38885 122.258 8.11819 122.258 7.79933C122.258 7.22463 121.943 6.54242 120.434 6.54242H118.795V10.8545H119.77V9.11185H119.774ZM119.774 7.28025H120.308C121.264 7.28025 121.264 7.68809 121.264 7.84382C121.264 8.09965 121.16 8.19234 121.083 8.23683C120.982 8.29615 120.771 8.3666 120.326 8.3666H119.774V7.28025Z" fill="#231F20"/>
<path d="M122.947 6.1717C122.228 5.4524 121.349 5.08905 120.334 5.08905C119.332 5.08905 118.472 5.44499 117.779 6.14203C117.049 6.87986 116.678 7.75858 116.678 8.75224C116.678 9.74961 117.041 10.6172 117.76 11.3328C118.476 12.0521 119.344 12.4154 120.334 12.4154C121.316 12.4154 122.191 12.0484 122.936 11.3254C123.641 10.6395 124 9.77557 124 8.75224C124 7.74005 123.648 6.87245 122.947 6.1717ZM120.337 5.81205C121.16 5.81205 121.865 6.10125 122.432 6.66852C122.999 7.2358 123.289 7.94397 123.289 8.7745C123.289 9.57536 122.999 10.265 122.432 10.8211C121.843 11.3958 121.134 11.6887 120.326 11.6887C119.525 11.6887 118.828 11.3958 118.261 10.8137C117.69 10.2316 117.404 9.54199 117.404 8.75596C117.404 7.95139 117.701 7.24322 118.291 6.64998C118.839 6.09383 119.529 5.81205 120.337 5.81205Z" fill="#231F20"/>
</svg>
