<svg width="24" height="24" viewBox="0 0 24 24" fill="none" xmlns="http://www.w3.org/2000/svg">
<path d="M18.4451 17.6041L15.065 17.615C13.1043 17.6213 9.89571 17.6213 7.93495 17.615L4.55486 17.6041L5.05853 16.842C5.74906 15.797 5.94075 15.463 6.06993 15.0587C6.11671 14.9124 6.13936 14.8039 6.15435 14.3514C6.16928 13.9001 6.17676 13.0967 6.18966 11.5558C6.19033 11.4747 6.19099 11.3956 6.19164 11.3184C6.20488 9.7287 6.21146 8.93947 6.24552 8.44829C6.27897 7.96584 6.33816 7.77801 6.46116 7.38771C6.46738 7.36796 6.47376 7.3477 6.48032 7.32685C6.94931 5.83503 8.09365 4.54611 9.4772 3.94753C9.86502 3.77974 10.453 3.61387 10.8407 3.56236L18.4451 17.6041ZM18.4451 17.6041L17.9415 16.842C17.2514 15.7977 17.0595 15.4635 16.9298 15.0588C16.8828 14.9123 16.8601 14.8049 16.8451 14.3528C16.8302 13.9022 16.8229 13.0988 16.8102 11.5558C16.8094 11.4669 16.8087 11.3804 16.808 11.2961C16.7951 9.71841 16.7887 8.93515 16.7545 8.44603C16.7209 7.96551 16.6612 7.7759 16.5372 7.38162C16.5303 7.35987 16.5233 7.33749 16.516 7.31441C16.0949 5.97245 15.0791 4.75261 13.8307 4.09027C13.5049 3.91742 12.944 3.71904 12.5192 3.62743L12.5403 3.52968L12.5192 3.62743C12.3228 3.58508 12.007 3.55471 11.6848 3.54221C11.3626 3.52971 11.0435 3.53544 10.8407 3.56235L18.4451 17.6041ZM4.75821 7.711L4.85605 7.73165L4.75821 7.71101C4.66431 8.15615 4.66085 8.28948 4.63718 11.353C4.62521 12.9043 4.61856 13.6974 4.60414 14.1278C4.5897 14.5585 4.56746 14.611 4.53241 14.6911C4.51169 14.7384 4.42358 14.8881 4.29149 15.0992C4.16175 15.3065 3.99474 15.5651 3.82187 15.8247C3.40942 16.4441 3.17876 16.8004 3.0524 17.0575C2.92159 17.3237 2.89998 17.489 2.9 17.7217C2.90004 18.1833 3.05731 18.5664 3.3742 18.8614L3.37421 18.8614L3.38452 18.871C3.47733 18.9575 3.55764 19.0323 3.65693 19.089C3.76255 19.1493 3.88412 19.1866 4.06003 19.2106C4.39957 19.2569 4.97285 19.2569 6.09273 19.2568H6.14531H8.10697L8.14293 19.4268L8.24076 19.4061L8.14293 19.4268C8.18156 19.6094 8.28019 19.8599 8.39913 20.1037C8.5185 20.3483 8.66267 20.5949 8.79693 20.7691C9.21987 21.3183 9.95303 21.8164 10.6263 22.0123C10.8316 22.0721 11.1701 22.0999 11.4993 22.1C11.8285 22.1001 12.1674 22.0726 12.3735 22.013C13.0489 21.8178 13.7546 21.34 14.1896 20.7839L14.1108 20.7223L14.1896 20.7839C14.3289 20.6056 14.4759 20.3582 14.5971 20.1122C14.7179 19.867 14.8173 19.6149 14.8571 19.4268L14.7592 19.4061L14.8571 19.4268L14.893 19.2568H16.8547H16.9073C18.0272 19.2569 18.6004 19.2569 18.94 19.2106C19.1159 19.1866 19.2374 19.1493 19.3431 19.089C19.4424 19.0323 19.5227 18.9575 19.6155 18.871L19.6258 18.8614L19.5577 18.7882L19.6258 18.8614C19.9427 18.5664 20.1 18.1833 20.1 17.7217C20.1 17.489 20.0784 17.3237 19.9476 17.0575C19.8212 16.8004 19.5906 16.4441 19.1781 15.8247C19.0053 15.5651 18.8382 15.3065 18.7085 15.0992C18.5764 14.8881 18.4883 14.7384 18.4676 14.6911C18.4325 14.611 18.4103 14.5585 18.3959 14.1278C18.3814 13.6974 18.3748 12.9043 18.3628 11.353C18.3391 8.28948 18.3357 8.15615 18.2418 7.71101L18.1439 7.73165L18.2418 7.711C17.6235 4.78009 15.5979 2.63614 12.8539 2.02234L12.8539 2.02234C12.6007 1.96571 12.1664 1.92617 11.7381 1.90925C11.3099 1.89233 10.8745 1.8975 10.6189 1.93405L10.6331 2.03304L10.6189 1.93405C9.85539 2.04327 8.94321 2.35523 8.27877 2.73446C6.44079 3.78347 5.22296 5.50789 4.75821 7.711ZM11.2152 20.4527C10.5642 20.3347 9.98382 19.8666 9.75052 19.2761L9.65752 19.3129L9.75052 19.2761L9.74291 19.2568H11.5H13.2571L13.2495 19.2761L13.3425 19.3129L13.2495 19.2761C12.9329 20.0774 12.0235 20.5993 11.2152 20.4527Z" fill="black" stroke="black" stroke-width="0.2"/>
</svg>
